<svg width="20" height="20" viewBox="0 0 20 20" fill="none" xmlns="http://www.w3.org/2000/svg">
<path d="M17.7084 15.1418V15.9918M4.85835 10H15.1417C15.8224 10 16.4753 10.2704 16.9566 10.7517C17.4379 11.2331 17.7084 11.8859 17.7084 12.5667V15.1333H2.29169V12.5667C2.29169 11.8859 2.5621 11.2331 3.04345 10.7517C3.52479 10.2704 4.17763 10 4.85835 10ZM2.29169 15.1418V15.9918V15.1418Z" stroke="white" stroke-linecap="round" stroke-linejoin="round"/>
<path d="M16.85 10.6583V6.57497C16.85 5.89424 16.5796 5.2414 16.0983 4.76006C15.6169 4.27872 14.9641 4.0083 14.2834 4.0083H5.71669C5.03597 4.0083 4.38312 4.27872 3.90178 4.76006C3.42044 5.2414 3.15002 5.89424 3.15002 6.57497V10.6583" stroke="white" stroke-linecap="round" stroke-linejoin="round"/>
<path d="M8.15001 6.5752H6.70834C6.16066 6.5752 5.71667 7.01918 5.71667 7.56686V9.0085C5.71667 9.55625 6.16066 10.0002 6.70834 10.0002H8.15001C8.69767 10.0002 9.14167 9.55625 9.14167 9.0085V7.56686C9.14167 7.01918 8.69767 6.5752 8.15001 6.5752ZM13.2917 6.5752H11.85C11.3023 6.5752 10.8583 7.01918 10.8583 7.56686V9.0085C10.8583 9.55625 11.3023 10.0002 11.85 10.0002H13.2917C13.8393 10.0002 14.2833 9.55625 14.2833 9.0085V7.56686C14.2833 7.01918 13.8393 6.5752 13.2917 6.5752Z" stroke="white" stroke-linecap="round" stroke-linejoin="round"/>
</svg>
