<svg width="22" height="22" viewBox="0 0 22 22" fill="none" xmlns="http://www.w3.org/2000/svg">
<path fill-rule="evenodd" clip-rule="evenodd" d="M14.832 20.1666H7.16799C5.05164 20.1666 3.336 18.5295 3.336 16.5099V12.0386C3.336 11.3894 3.06574 10.7668 2.58469 10.3077C1.47014 9.2441 1.61502 7.48186 2.88978 6.59715L8.74611 2.53273C10.0898 1.60017 11.9101 1.60017 13.2539 2.53273L19.1102 6.59715C20.3849 7.48186 20.5298 9.2441 19.4153 10.3077C18.9342 10.7668 18.664 11.3894 18.664 12.0386V16.5099C18.664 18.5295 16.9483 20.1666 14.832 20.1666ZM8.34759 9.57621L10.1801 8.65992C10.6962 8.40186 11.3038 8.40186 11.8198 8.65992L13.6447 9.57236C14.2702 9.88513 14.6716 10.5281 14.634 11.2264C14.4862 13.974 13.8187 15.2528 12.0202 16.6717C11.4232 17.1426 10.5775 17.1415 9.97973 16.6716C8.18589 15.2615 7.49379 13.9986 7.35887 11.2178C7.32519 10.5237 7.72606 9.88696 8.34759 9.57621Z" fill="#4573FD"/>
</svg>
