<svg width="22" height="22" viewBox="0 0 22 22" fill="none" xmlns="http://www.w3.org/2000/svg">
<path fill-rule="evenodd" clip-rule="evenodd" d="M18.3333 5.49998V10.6439C18.0385 10.5769 17.7317 10.5416 17.4166 10.5416H16.5C15.4901 10.5416 14.5392 11.0171 13.9333 11.825L12.8333 13.2916C12.4006 13.8687 11.7213 14.2083 11 14.2083C10.2787 14.2083 9.5994 13.8687 9.16665 13.2916L8.06665 11.825C7.46074 11.0171 6.50983 10.5416 5.49998 10.5416H4.58331C4.26826 10.5416 3.96146 10.5769 3.66665 10.6439V5.49998C3.66665 3.47493 5.30827 1.83331 7.33331 1.83331H14.6666C16.6917 1.83331 18.3333 3.47493 18.3333 5.49998ZM20.1666 14.6666V17.4166C20.1666 18.9355 18.9355 20.1666 17.4166 20.1666H4.58331C3.06453 20.1666 1.83331 18.9355 1.83331 17.4166V14.6666C1.83331 13.1478 3.06453 11.9166 4.58331 11.9166H5.49998C6.07703 11.9166 6.62041 12.1883 6.96665 12.65L8.06665 14.1166C8.75911 15.0399 9.8459 15.5833 11 15.5833C12.1541 15.5833 13.2409 15.0399 13.9333 14.1166L15.0333 12.65C15.3795 12.1883 15.9229 11.9166 16.5 11.9166H17.4166C18.9355 11.9166 20.1666 13.1478 20.1666 14.6666Z" fill="#4573FD"/>
</svg>
