<svg width="44" height="44" viewBox="0 0 44 44" fill="none" xmlns="http://www.w3.org/2000/svg">
<circle opacity="0.5" cx="22" cy="22" r="21.5" stroke="#D0D0D1"/>
<path d="M31.8182 21.4025V27.9896C31.8182 30.1003 30.1687 31.8182 28.1364 31.8182H24.4545V27.1061C24.4545 26.4778 23.944 25.9674 23.3156 25.9674H20.6844C20.056 25.9674 19.5553 26.4778 19.5553 27.1061V31.8182H15.8636C13.8313 31.8182 12.1818 30.1003 12.1818 27.9896V21.4025C12.1818 20.2735 12.6629 19.2034 13.4876 18.4672L19.624 13.0875C21.0084 11.88 23.0015 11.88 24.376 13.0875L30.5124 18.4672C31.3469 19.2034 31.8182 20.2735 31.8182 21.4025Z" fill="#1FAB71"/>
</svg>
