<svg width="22" height="22" viewBox="0 0 22 22" fill="none" xmlns="http://www.w3.org/2000/svg">
<path fill-rule="evenodd" clip-rule="evenodd" d="M5.49998 1.83331C3.47493 1.83331 1.83331 3.47493 1.83331 5.49998V16.5C1.83331 18.525 3.47493 20.1666 5.49998 20.1666H16.5C18.525 20.1666 20.1666 18.525 20.1666 16.5V5.49998C20.1666 3.47493 18.525 1.83331 16.5 1.83331H5.49998ZM11.6876 5.49998C11.6876 5.12029 11.3798 4.81248 11.0001 4.81248C10.6204 4.81248 10.3126 5.12029 10.3126 5.49998V6.69979C9.3486 6.85269 8.48995 7.32196 7.84634 7.99786L6.45782 7.1962C6.129 7.00635 5.70853 7.11901 5.51868 7.44784C5.32884 7.77667 5.4415 8.19713 5.77032 8.38698L7.06474 9.13432C6.79618 9.69978 6.64592 10.3324 6.64592 11C6.64592 11.6676 6.79617 12.3002 7.06472 12.8656L5.77032 13.6129C5.4415 13.8028 5.32884 14.2233 5.51868 14.5521C5.70853 14.8809 6.129 14.9935 6.45782 14.8037L7.84631 14.0021C8.48992 14.678 9.3486 15.1473 10.3126 15.3002V16.5C10.3126 16.8797 10.6204 17.1875 11.0001 17.1875C11.3798 17.1875 11.6876 16.8797 11.6876 16.5V15.3002C12.6516 15.1473 13.5103 14.678 14.1539 14.0021L15.5422 14.8037C15.8711 14.9935 16.2915 14.8809 16.4814 14.552C16.6712 14.2232 16.5586 13.8027 16.2297 13.6128L14.9354 12.8656C15.204 12.3002 15.3542 11.6676 15.3542 11C15.3542 10.3324 15.204 9.69978 14.9354 9.13431L16.2297 8.38704C16.5586 8.19719 16.6712 7.77672 16.4814 7.4479C16.2915 7.11907 15.8711 7.0064 15.5422 7.19625L14.1539 7.99785C13.5102 7.32195 12.6515 6.85269 11.6876 6.69979V5.49998ZM8.02092 11C8.02092 9.35465 9.35475 8.02081 11.0001 8.02081C12.6454 8.02081 13.9792 9.35465 13.9792 11C13.9792 12.6453 12.6454 13.9791 11.0001 13.9791C9.35475 13.9791 8.02092 12.6453 8.02092 11Z" fill="#4573FD"/>
</svg>
