<svg width="22" height="22" viewBox="0 0 22 22" fill="none" xmlns="http://www.w3.org/2000/svg">
<path fill-rule="evenodd" clip-rule="evenodd" d="M9.85419 1.83331C9.85419 1.45362 9.54637 1.14581 9.16669 1.14581C8.78699 1.14581 8.47919 1.45362 8.47919 1.83331V3.66665C8.47919 4.04634 8.78699 4.35415 9.16669 4.35415C9.54637 4.35415 9.85419 4.04634 9.85419 3.66665V1.83331ZM13.5209 4.58331C13.5209 4.20362 13.213 3.89581 12.8334 3.89581C12.4537 3.89581 12.1459 4.20362 12.1459 4.58331V6.41665C12.1459 6.79634 12.4537 7.10415 12.8334 7.10415C13.213 7.10415 13.5209 6.79634 13.5209 6.41665V4.58331ZM6.61339 6.1587C6.97721 6.05006 7.18408 5.66706 7.07545 5.30324C6.96682 4.93942 6.58381 4.73255 6.21999 4.84117C5.33745 5.10469 4.56478 5.45213 3.99738 5.88272C3.43929 6.30625 2.97919 6.89285 2.97919 7.63232C2.97919 11.1465 4.82792 14.2233 7.56252 15.6601V18.3433C7.56252 20.2148 9.53986 21.4167 11.209 20.5878L13.0424 19.6772C13.8957 19.2535 14.4375 18.3854 14.4375 17.4328V15.6601C17.1721 14.2233 19.0209 11.1465 19.0209 7.63232C19.0209 6.89285 18.5608 6.30625 18.0026 5.88272C17.4353 5.45213 16.6626 5.10469 15.7801 4.84117C15.4162 4.73255 15.0333 4.93942 14.9246 5.30324C14.8159 5.66706 15.0228 6.05006 15.3866 6.1587C16.1807 6.39576 16.783 6.68322 17.1715 6.97803C17.5692 7.27989 17.6459 7.50919 17.6459 7.63232C17.6459 7.74038 17.5895 7.92706 17.3027 8.17958C17.017 8.43114 16.5642 8.68904 15.9455 8.9195C14.7133 9.37849 12.9649 9.67631 11 9.67631C9.03515 9.67631 7.2868 9.37849 6.05454 8.9195C5.43581 8.68904 4.983 8.43114 4.69734 8.17958C4.41058 7.92706 4.35419 7.74038 4.35419 7.63232C4.35419 7.50919 4.43083 7.27989 4.8286 6.97803C5.21707 6.68322 5.81941 6.39576 6.61339 6.1587ZM9.16669 5.72915C9.54637 5.72915 9.85419 6.03695 9.85419 6.41665V7.33331C9.85419 7.71301 9.54637 8.02081 9.16669 8.02081C8.78699 8.02081 8.47919 7.71301 8.47919 7.33331V6.41665C8.47919 6.03695 8.78699 5.72915 9.16669 5.72915Z" fill="#4573FD"/>
</svg>
